<svg xmlns="http://www.w3.org/2000/svg" xmlns:xlink="http://www.w3.org/1999/xlink" version="1.1"
	width="2583.098639891338"
	height="3191.3406399919504" viewBox="0 0 2583.098639891338 3191.3406399919504">

	<g transform="scale(9.567031999597548) translate(10, 10)">
		<defs id="SvgjsDefs4469">
			<linearGradient id="SvgjsLinearGradient4478">
				<stop id="SvgjsStop4479" stop-color="#26275f" offset="0"></stop>
				<stop id="SvgjsStop4480" stop-color="#813e96" offset="0.14"></stop>
				<stop id="SvgjsStop4481" stop-color="#2e64af" offset="0.29"></stop>
				<stop id="SvgjsStop4482" stop-color="#3faa49" offset="0.5"></stop>
				<stop id="SvgjsStop4483" stop-color="#f2e64a" offset="0.71"></stop>
				<stop id="SvgjsStop4484" stop-color="#f2903b" offset="0.86"></stop>
				<stop id="SvgjsStop4485" stop-color="#ed4533" offset="1"></stop>
			</linearGradient>
		</defs>
		<g id="SvgjsG4470" featureKey="symbolFeature-0"
			transform="matrix(4.953867880163732,0,0,4.953867880163732,-122.68346336864869,-172.21628158115814)"
			fill="url(#SvgjsLinearGradient4478)">
			<path xmlns="http://www.w3.org/2000/svg"
				d="M59.86,65.236H40.14c-0.586,0-1.063-0.476-1.063-1.063V49.729l-1.782,1.783c-0.399,0.399-1.104,0.399-1.503,0l-5.669-5.669  c-0.415-0.415-0.415-1.087,0-1.503l9.265-9.265c0.199-0.199,0.469-0.311,0.751-0.311h4.482c0.528,0,0.975,0.388,1.051,0.91  c0.311,2.133,2.171,3.743,4.326,3.743s4.015-1.609,4.326-3.743c0.076-0.522,0.524-0.91,1.051-0.91h4.482  c0.282,0,0.552,0.112,0.751,0.311l9.265,9.265c0.415,0.415,0.415,1.087,0,1.503l-5.669,5.669c-0.399,0.399-1.104,0.399-1.503,0  l-1.783-1.783v14.445C60.922,64.76,60.446,65.236,59.86,65.236z M41.202,63.111h17.595V47.164c0-0.429,0.259-0.817,0.655-0.982  c0.399-0.164,0.855-0.073,1.158,0.23l2.846,2.846l4.166-4.166L59.42,36.89h-3.191c-0.808,2.707-3.34,4.652-6.229,4.652  s-5.42-1.945-6.229-4.652h-3.192l-8.202,8.203l4.166,4.166l2.845-2.846c0.303-0.303,0.76-0.394,1.158-0.23  c0.397,0.164,0.655,0.552,0.655,0.982v15.948C41.201,63.111,41.202,63.111,41.202,63.111z"></path>
		</g>
		<g id="SvgjsG4471" featureKey="nameFeature-0"
			transform="matrix(1.5882457407018216,0,0,1.5882457407018216,-2.140271085430831,157.81654370622726)"
			fill="#e61c5d">
			<path
				d="M10.918 33.7891 l-0.019531 -0.039063 c1.7383 0 3.1836 -1.4453 3.1836 -3.1836 c0 -1.3477 -0.52734 -2.207 -1.6016 -2.5977 c-2.2656 -0.83984 -1.7188 -0.64453 -3.9258 -1.4063 c-2.3242 -0.80078 -4.4727 -2.3828 -5.918 -4.3555 c-0.85938 -1.1719 -1.2891 -2.6172 -1.2891 -4.3555 c0 -2.6172 0.9375 -4.8633 2.8125 -6.7383 s4.1211 -2.8125 6.7578 -2.8125 c2.6172 0 4.8633 0.9375 6.7383 2.8125 s2.8125 4.1211 2.8125 6.7383 l-6.3477 0 c0 -1.7188 -1.4453 -3.1641 -3.1641 -3.1641 c-1.7383 0 -3.1836 1.4453 -3.1836 3.1836 c0 1.1328 0.44922 1.9922 1.3672 2.5781 c1.875 1.2109 1.6602 0.97656 3.9063 1.6406 c2.4219 0.70313 4.6094 2.207 6.1133 4.1406 c0.87891 1.1328 1.3281 2.5977 1.3281 4.375 c0 2.6367 -0.9375 4.8828 -2.8125 6.7578 s-4.1211 2.8125 -6.7383 2.8125 c-2.6367 0 -4.8828 -0.9375 -6.7578 -2.8125 s-2.8125 -4.1211 -2.8125 -6.7578 l6.3672 0 c0 1.7578 1.4258 3.1836 3.1836 3.1836 z M36.91015625 8.515999999999998 l6.3086 0 l0 12.598 l9.4336 0 l0 -12.598 l6.3086 0 l0 31.484 l-6.3086 0 l0 -12.598 l-9.4336 0 l0 12.598 l-6.3086 0 l0 -31.484 z M75.6171875 40 l0 -31.484 l6.3086 0 l0 31.484 l-6.3086 0 z M98.58203125 40 l-0.019531 -31.523 l10.234 0 c3.0273 0 6.0156 1.0547 8.1836 3.2227 s3.0469 4.1992 3.0469 7.2266 l0 0.97656 c0 2.3438 -0.66406 4.0625 -1.9922 5.9375 s-2.4414 2.4219 -4.5117 3.2031 l7.1094 10.957 l-7.6953 0 l-8.0469 -12.305 l0 12.305 l-6.3086 0 z M104.87113125 23.633 l4.5117 0.019531 c1.3086 0 1.9727 -0.33203 2.8906 -1.25 s1.25 -1.9727 1.25 -3.2813 c0 -1.2891 -0.33203 -2.1484 -1.25 -3.0859 s-2.5586 -1.2695 -3.8672 -1.2695 l-3.5352 0 l0 8.8672 z M144.57425 8.515999999999998 l6.3086 0 l7.8711 0 l0 6.2891 l-7.8711 0 l0 25.195 l-6.3086 0 l0 -25.195 l-7.8711 0 l0 -6.2891 l7.8711 0 z"></path>
		</g>
		<g id="SvgjsG4472" featureKey="nameFeature-1"
			transform="matrix(1.6023230554767194,0,0,1.6023230554767194,-2.503629774182374,219.29357768107943)"
			fill="#e61c5d">
			<path
				d="M1.5625 7.93 l15.352 21.055 l15.352 -21.055 l0 32.07 l-6.3086 0 l0 -12.988 l-9.043 12.48 l-9.043 -12.48 l0 12.988 l-6.3086 0 l0 -32.07 z M64.039375 8.359000000000002 c4.375 0 8.125 1.5625 11.25 4.6875 s4.6875 6.875 4.6875 11.25 s-1.5625 8.125 -4.6875 11.23 s-6.875 4.668 -11.25 4.668 s-8.125 -1.5625 -11.23 -4.668 s-4.668 -6.8555 -4.668 -11.23 s1.5625 -8.125 4.668 -11.25 s6.8555 -4.6875 11.23 -4.6875 z M64.039375 14.707 c-2.6367 0 -4.8828 0.9375 -6.7383 2.8125 s-2.793 4.1211 -2.793 6.7383 c0 2.6367 0.9375 4.8828 2.793 6.7383 s4.1016 2.793 6.7383 2.793 c2.6172 0 4.8633 -0.9375 6.7383 -2.793 s2.8125 -4.1016 2.8125 -6.7383 c0 -2.6172 -0.9375 -4.8633 -2.8125 -6.7383 s-4.1211 -2.8125 -6.7383 -2.8125 z M92.140625 8.515999999999998 l7.2266 0 l5.3516 9.375 l5.3516 -9.375 l7.2461 0 l-8.9844 15.723 l8.9844 15.762 l-7.2461 0 l-5.3516 -9.3945 l-5.3516 9.3945 l-7.2266 -0.019531 l8.9453 -15.742 z M132.41015625 8.515999999999998 l7.1484 0 l5.4297 9.9805 l5.4297 -9.9805 l7.168 0 l-9.4531 17.363 l0 14.121 l-6.2891 0 l0 -14.121 z"></path>
		</g>
	</g>
</svg>
	